<?xml version="1.0" encoding="UTF-8" standalone="no"?>
<!DOCTYPE svg PUBLIC "-//W3C//DTD SVG 1.1//EN"
 "http://www.w3.org/Graphics/SVG/1.1/DTD/svg11.dtd">
<!-- Generated by graphviz version 2.47.3 (20210619.1520)
 -->
<!-- Title: dependencies Pages: 1 -->
<svg width="7244pt" height="247pt"
 viewBox="0.00 0.00 7244.00 246.80" xmlns="http://www.w3.org/2000/svg" xmlns:xlink="http://www.w3.org/1999/xlink">
<g id="graph0" class="graph" transform="scale(1 1) rotate(0) translate(4 242.8)">
<title>dependencies</title>
<polygon fill="white" stroke="transparent" points="-4,4 -4,-242.8 7240,-242.8 7240,4 -4,4"/>
<text text-anchor="middle" x="3618" y="-8.2" font-family="sans-serif" font-size="14.00">dependencies</text>
<g id="clust1" class="cluster">
<title>cluster_AppModule</title>
<polygon fill="none" stroke="black" stroke-dasharray="1,5" points="8,-32.8 8,-230.8 7228,-230.8 7228,-32.8 8,-32.8"/>
</g>
<g id="clust45" class="cluster">
<title>cluster_AppModule_imports</title>
<polygon fill="none" stroke="black" points="6905,-40.8 6905,-92.8 7220,-92.8 7220,-40.8 6905,-40.8"/>
</g>
<g id="clust47" class="cluster">
<title>cluster_AppModule_bootstrap</title>
<polygon fill="none" stroke="black" points="3641,-170.8 3641,-222.8 3765,-222.8 3765,-170.8 3641,-170.8"/>
</g>
<g id="clust2" class="cluster">
<title>cluster_AppModule_declarations</title>
<polygon fill="none" stroke="black" points="16,-40.8 16,-92.8 6897,-92.8 6897,-40.8 16,-40.8"/>
</g>
<!-- AdminPageComponent -->
<g id="node1" class="node">
<title>AdminPageComponent</title>
<polygon fill="#ffffb3" stroke="black" points="6888.93,-84.8 6741.07,-84.8 6741.07,-48.8 6888.93,-48.8 6888.93,-84.8"/>
<text text-anchor="middle" x="6815" y="-62.6" font-family="Times,serif" font-size="14.00">AdminPageComponent</text>
</g>
<!-- AppModule -->
<g id="node43" class="node">
<title>AppModule</title>
<polygon fill="#8dd3c7" stroke="black" points="3744.66,-149.8 3741.66,-153.8 3720.66,-153.8 3717.66,-149.8 3661.34,-149.8 3661.34,-113.8 3744.66,-113.8 3744.66,-149.8"/>
<text text-anchor="middle" x="3703" y="-127.6" font-family="Times,serif" font-size="14.00">AppModule</text>
</g>
<!-- AdminPageComponent&#45;&gt;AppModule -->
<g id="edge1" class="edge">
<title>AdminPageComponent&#45;&gt;AppModule</title>
<path fill="none" stroke="black" d="M6815,-85.12C6815,-108.46 6815,-145.8 6815,-145.8 6815,-145.8 3754.93,-145.8 3754.93,-145.8"/>
<polygon fill="black" stroke="black" points="3754.93,-142.3 3744.93,-145.8 3754.93,-149.3 3754.93,-142.3"/>
</g>
<!-- AppComponent -->
<g id="node2" class="node">
<title>AppComponent</title>
<polygon fill="#ffffb3" stroke="black" points="6723.94,-84.8 6618.06,-84.8 6618.06,-48.8 6723.94,-48.8 6723.94,-84.8"/>
<text text-anchor="middle" x="6671" y="-62.6" font-family="Times,serif" font-size="14.00">AppComponent</text>
</g>
<!-- AppComponent&#45;&gt;AppModule -->
<g id="edge2" class="edge">
<title>AppComponent&#45;&gt;AppModule</title>
<path fill="none" stroke="black" d="M6671,-85.05C6671,-107.82 6671,-143.8 6671,-143.8 6671,-143.8 3754.67,-143.8 3754.67,-143.8"/>
<polygon fill="black" stroke="black" points="3754.67,-140.3 3744.67,-143.8 3754.67,-147.3 3754.67,-140.3"/>
</g>
<!-- CenterPanelComponent -->
<g id="node3" class="node">
<title>CenterPanelComponent</title>
<polygon fill="#ffffb3" stroke="black" points="6599.75,-84.8 6450.25,-84.8 6450.25,-48.8 6599.75,-48.8 6599.75,-84.8"/>
<text text-anchor="middle" x="6525" y="-62.6" font-family="Times,serif" font-size="14.00">CenterPanelComponent</text>
</g>
<!-- CenterPanelComponent&#45;&gt;AppModule -->
<g id="edge3" class="edge">
<title>CenterPanelComponent&#45;&gt;AppModule</title>
<path fill="none" stroke="black" d="M6525,-84.96C6525,-107.15 6525,-141.8 6525,-141.8 6525,-141.8 3754.81,-141.8 3754.81,-141.8"/>
<polygon fill="black" stroke="black" points="3754.81,-138.3 3744.81,-141.8 3754.81,-145.3 3754.81,-138.3"/>
</g>
<!-- ChatComponent -->
<g id="node4" class="node">
<title>ChatComponent</title>
<polygon fill="#ffffb3" stroke="black" points="6431.77,-84.8 6324.23,-84.8 6324.23,-48.8 6431.77,-48.8 6431.77,-84.8"/>
<text text-anchor="middle" x="6378" y="-62.6" font-family="Times,serif" font-size="14.00">ChatComponent</text>
</g>
<!-- ChatComponent&#45;&gt;AppModule -->
<g id="edge4" class="edge">
<title>ChatComponent&#45;&gt;AppModule</title>
<path fill="none" stroke="black" d="M6378,-85.09C6378,-107.01 6378,-140.8 6378,-140.8 6378,-140.8 3754.75,-140.8 3754.75,-140.8"/>
<polygon fill="black" stroke="black" points="3754.75,-137.3 3744.75,-140.8 3754.75,-144.3 3754.75,-137.3"/>
</g>
<!-- CreatingNewPostCardComponent -->
<g id="node5" class="node">
<title>CreatingNewPostCardComponent</title>
<polygon fill="#ffffb3" stroke="black" points="6305.8,-84.8 6098.2,-84.8 6098.2,-48.8 6305.8,-48.8 6305.8,-84.8"/>
<text text-anchor="middle" x="6202" y="-62.6" font-family="Times,serif" font-size="14.00">CreatingNewPostCardComponent</text>
</g>
<!-- CreatingNewPostCardComponent&#45;&gt;AppModule -->
<g id="edge5" class="edge">
<title>CreatingNewPostCardComponent&#45;&gt;AppModule</title>
<path fill="none" stroke="black" d="M6202,-84.97C6202,-106.3 6202,-138.8 6202,-138.8 6202,-138.8 3754.81,-138.8 3754.81,-138.8"/>
<polygon fill="black" stroke="black" points="3754.81,-135.3 3744.81,-138.8 3754.81,-142.3 3754.81,-135.3"/>
</g>
<!-- DialogComponent -->
<g id="node6" class="node">
<title>DialogComponent</title>
<polygon fill="#ffffb3" stroke="black" points="6080.94,-84.8 5961.06,-84.8 5961.06,-48.8 6080.94,-48.8 6080.94,-84.8"/>
<text text-anchor="middle" x="6021" y="-62.6" font-family="Times,serif" font-size="14.00">DialogComponent</text>
</g>
<!-- DialogComponent&#45;&gt;AppModule -->
<g id="edge6" class="edge">
<title>DialogComponent&#45;&gt;AppModule</title>
<path fill="none" stroke="black" d="M6021,-84.83C6021,-105.57 6021,-136.8 6021,-136.8 6021,-136.8 3754.71,-136.8 3754.71,-136.8"/>
<polygon fill="black" stroke="black" points="3754.71,-133.3 3744.71,-136.8 3754.71,-140.3 3754.71,-133.3"/>
</g>
<!-- FooterComponent -->
<g id="node7" class="node">
<title>FooterComponent</title>
<polygon fill="#ffffb3" stroke="black" points="5942.88,-84.8 5825.12,-84.8 5825.12,-48.8 5942.88,-48.8 5942.88,-84.8"/>
<text text-anchor="middle" x="5884" y="-62.6" font-family="Times,serif" font-size="14.00">FooterComponent</text>
</g>
<!-- FooterComponent&#45;&gt;AppModule -->
<g id="edge7" class="edge">
<title>FooterComponent&#45;&gt;AppModule</title>
<path fill="none" stroke="black" d="M5884,-84.93C5884,-105.37 5884,-135.8 5884,-135.8 5884,-135.8 3755.1,-135.8 3755.1,-135.8"/>
<polygon fill="black" stroke="black" points="3755.1,-132.3 3745.1,-135.8 3755.1,-139.3 3755.1,-132.3"/>
</g>
<!-- ForumComponent -->
<g id="node8" class="node">
<title>ForumComponent</title>
<polygon fill="#ffffb3" stroke="black" points="5807.17,-84.8 5688.83,-84.8 5688.83,-48.8 5807.17,-48.8 5807.17,-84.8"/>
<text text-anchor="middle" x="5748" y="-62.6" font-family="Times,serif" font-size="14.00">ForumComponent</text>
</g>
<!-- ForumComponent&#45;&gt;AppModule -->
<g id="edge8" class="edge">
<title>ForumComponent&#45;&gt;AppModule</title>
<path fill="none" stroke="black" d="M5748,-85.11C5748,-104.95 5748,-133.8 5748,-133.8 5748,-133.8 3754.78,-133.8 3754.78,-133.8"/>
<polygon fill="black" stroke="black" points="3754.78,-130.3 3744.78,-133.8 3754.78,-137.3 3754.78,-130.3"/>
</g>
<!-- ForumThreadComponent -->
<g id="node9" class="node">
<title>ForumThreadComponent</title>
<polygon fill="#ffffb3" stroke="black" points="5671.31,-84.8 5512.69,-84.8 5512.69,-48.8 5671.31,-48.8 5671.31,-84.8"/>
<text text-anchor="middle" x="5592" y="-62.6" font-family="Times,serif" font-size="14.00">ForumThreadComponent</text>
</g>
<!-- ForumThreadComponent&#45;&gt;AppModule -->
<g id="edge9" class="edge">
<title>ForumThreadComponent&#45;&gt;AppModule</title>
<path fill="none" stroke="black" d="M5592,-84.91C5592,-104.14 5592,-131.8 5592,-131.8 5592,-131.8 3755.1,-131.8 3755.1,-131.8"/>
<polygon fill="black" stroke="black" points="3755.1,-128.3 3745.1,-131.8 3755.1,-135.3 3755.1,-128.3"/>
</g>
<!-- ImprintComponent -->
<g id="node10" class="node">
<title>ImprintComponent</title>
<polygon fill="#ffffb3" stroke="black" points="5494.83,-84.8 5371.17,-84.8 5371.17,-48.8 5494.83,-48.8 5494.83,-84.8"/>
<text text-anchor="middle" x="5433" y="-62.6" font-family="Times,serif" font-size="14.00">ImprintComponent</text>
</g>
<!-- ImprintComponent&#45;&gt;AppModule -->
<g id="edge10" class="edge">
<title>ImprintComponent&#45;&gt;AppModule</title>
<path fill="none" stroke="black" d="M5433,-84.97C5433,-103.89 5433,-130.8 5433,-130.8 5433,-130.8 3754.91,-130.8 3754.91,-130.8"/>
<polygon fill="black" stroke="black" points="3754.91,-127.3 3744.91,-130.8 3754.91,-134.3 3754.91,-127.3"/>
</g>
<!-- InterestingMentorsComponent -->
<g id="node11" class="node">
<title>InterestingMentorsComponent</title>
<polygon fill="#ffffb3" stroke="black" points="5352.85,-84.8 5165.15,-84.8 5165.15,-48.8 5352.85,-48.8 5352.85,-84.8"/>
<text text-anchor="middle" x="5259" y="-62.6" font-family="Times,serif" font-size="14.00">InterestingMentorsComponent</text>
</g>
<!-- InterestingMentorsComponent&#45;&gt;AppModule -->
<g id="edge11" class="edge">
<title>InterestingMentorsComponent&#45;&gt;AppModule</title>
<path fill="none" stroke="black" d="M5259,-85.07C5259,-103.36 5259,-128.8 5259,-128.8 5259,-128.8 3755.02,-128.8 3755.02,-128.8"/>
<polygon fill="black" stroke="black" points="3755.02,-125.3 3745.02,-128.8 3755.02,-132.3 3755.02,-125.3"/>
</g>
<!-- JobProfilesComponent -->
<g id="node12" class="node">
<title>JobProfilesComponent</title>
<polygon fill="#ffffb3" stroke="black" points="5147.32,-84.8 5002.68,-84.8 5002.68,-48.8 5147.32,-48.8 5147.32,-84.8"/>
<text text-anchor="middle" x="5075" y="-62.6" font-family="Times,serif" font-size="14.00">JobProfilesComponent</text>
</g>
<!-- JobProfilesComponent&#45;&gt;AppModule -->
<g id="edge12" class="edge">
<title>JobProfilesComponent&#45;&gt;AppModule</title>
<path fill="none" stroke="black" d="M5075,-85.1C5075,-103.07 5075,-127.8 5075,-127.8 5075,-127.8 3754.81,-127.8 3754.81,-127.8"/>
<polygon fill="black" stroke="black" points="3754.81,-124.3 3744.81,-127.8 3754.81,-131.3 3754.81,-124.3"/>
</g>
<!-- LandingPageComponent -->
<g id="node13" class="node">
<title>LandingPageComponent</title>
<polygon fill="#ffffb3" stroke="black" points="4984.7,-84.8 4829.3,-84.8 4829.3,-48.8 4984.7,-48.8 4984.7,-84.8"/>
<text text-anchor="middle" x="4907" y="-62.6" font-family="Times,serif" font-size="14.00">LandingPageComponent</text>
</g>
<!-- LandingPageComponent&#45;&gt;AppModule -->
<g id="edge13" class="edge">
<title>LandingPageComponent&#45;&gt;AppModule</title>
<path fill="none" stroke="black" d="M4907,-84.82C4907,-102.17 4907,-125.8 4907,-125.8 4907,-125.8 3754.79,-125.8 3754.79,-125.8"/>
<polygon fill="black" stroke="black" points="3754.79,-122.3 3744.79,-125.8 3754.79,-129.3 3754.79,-122.3"/>
</g>
<!-- LeftPanelComponent -->
<g id="node14" class="node">
<title>LeftPanelComponent</title>
<polygon fill="#ffffb3" stroke="black" points="4811.75,-84.8 4676.25,-84.8 4676.25,-48.8 4811.75,-48.8 4811.75,-84.8"/>
<text text-anchor="middle" x="4744" y="-62.6" font-family="Times,serif" font-size="14.00">LeftPanelComponent</text>
</g>
<!-- LeftPanelComponent&#45;&gt;AppModule -->
<g id="edge14" class="edge">
<title>LeftPanelComponent&#45;&gt;AppModule</title>
<path fill="none" stroke="black" d="M4744,-84.84C4744,-101.53 4744,-123.8 4744,-123.8 4744,-123.8 3754.77,-123.8 3754.77,-123.8"/>
<polygon fill="black" stroke="black" points="3754.77,-120.3 3744.77,-123.8 3754.77,-127.3 3754.77,-120.3"/>
</g>
<!-- LeftSpacerComponent -->
<g id="node15" class="node">
<title>LeftSpacerComponent</title>
<polygon fill="#ffffb3" stroke="black" points="4658.24,-84.8 4515.76,-84.8 4515.76,-48.8 4658.24,-48.8 4658.24,-84.8"/>
<text text-anchor="middle" x="4587" y="-62.6" font-family="Times,serif" font-size="14.00">LeftSpacerComponent</text>
</g>
<!-- LeftSpacerComponent&#45;&gt;AppModule -->
<g id="edge15" class="edge">
<title>LeftSpacerComponent&#45;&gt;AppModule</title>
<path fill="none" stroke="black" d="M4587,-84.83C4587,-101.2 4587,-122.8 4587,-122.8 4587,-122.8 3754.75,-122.8 3754.75,-122.8"/>
<polygon fill="black" stroke="black" points="3754.75,-119.3 3744.75,-122.8 3754.75,-126.3 3754.75,-119.3"/>
</g>
<!-- LoginBoxComponent -->
<g id="node16" class="node">
<title>LoginBoxComponent</title>
<polygon fill="#ffffb3" stroke="black" points="4498.11,-84.8 4359.89,-84.8 4359.89,-48.8 4498.11,-48.8 4498.11,-84.8"/>
<text text-anchor="middle" x="4429" y="-62.6" font-family="Times,serif" font-size="14.00">LoginBoxComponent</text>
</g>
<!-- LoginBoxComponent&#45;&gt;AppModule -->
<g id="edge16" class="edge">
<title>LoginBoxComponent&#45;&gt;AppModule</title>
<path fill="none" stroke="black" d="M4429,-85.08C4429,-100.75 4429,-120.8 4429,-120.8 4429,-120.8 3754.91,-120.8 3754.91,-120.8"/>
<polygon fill="black" stroke="black" points="3754.91,-117.3 3744.91,-120.8 3754.91,-124.3 3754.91,-117.3"/>
</g>
<!-- MainComponent -->
<g id="node17" class="node">
<title>MainComponent</title>
<polygon fill="#ffffb3" stroke="black" points="4342.38,-84.8 4231.62,-84.8 4231.62,-48.8 4342.38,-48.8 4342.38,-84.8"/>
<text text-anchor="middle" x="4287" y="-62.6" font-family="Times,serif" font-size="14.00">MainComponent</text>
</g>
<!-- MainComponent&#45;&gt;AppModule -->
<g id="edge17" class="edge">
<title>MainComponent&#45;&gt;AppModule</title>
<path fill="none" stroke="black" d="M4287,-84.99C4287,-99.98 4287,-118.8 4287,-118.8 4287,-118.8 3755,-118.8 3755,-118.8"/>
<polygon fill="black" stroke="black" points="3755,-115.3 3745,-118.8 3755,-122.3 3755,-115.3"/>
</g>
<!-- MainPanelComponent -->
<g id="node18" class="node">
<title>MainPanelComponent</title>
<polygon fill="#ffffb3" stroke="black" points="4213.98,-84.8 4072.02,-84.8 4072.02,-48.8 4213.98,-48.8 4213.98,-84.8"/>
<text text-anchor="middle" x="4143" y="-62.6" font-family="Times,serif" font-size="14.00">MainPanelComponent</text>
</g>
<!-- MainPanelComponent&#45;&gt;AppModule -->
<g id="edge18" class="edge">
<title>MainPanelComponent&#45;&gt;AppModule</title>
<path fill="none" stroke="black" d="M4143,-84.92C4143,-99.58 4143,-117.8 4143,-117.8 4143,-117.8 3754.79,-117.8 3754.79,-117.8"/>
<polygon fill="black" stroke="black" points="3754.79,-114.3 3744.79,-117.8 3754.79,-121.3 3754.79,-114.3"/>
</g>
<!-- MentorSpotlightComponent -->
<g id="node19" class="node">
<title>MentorSpotlightComponent</title>
<polygon fill="#ffffb3" stroke="black" points="4053.89,-84.8 3880.11,-84.8 3880.11,-48.8 4053.89,-48.8 4053.89,-84.8"/>
<text text-anchor="middle" x="3967" y="-62.6" font-family="Times,serif" font-size="14.00">MentorSpotlightComponent</text>
</g>
<!-- MentorSpotlightComponent&#45;&gt;AppModule -->
<g id="edge19" class="edge">
<title>MentorSpotlightComponent&#45;&gt;AppModule</title>
<path fill="none" stroke="black" d="M3967,-85.05C3967,-98.98 3967,-115.8 3967,-115.8 3967,-115.8 3754.83,-115.8 3754.83,-115.8"/>
<polygon fill="black" stroke="black" points="3754.83,-112.3 3744.83,-115.8 3754.83,-119.3 3754.83,-112.3"/>
</g>
<!-- MessageCardComponent -->
<g id="node20" class="node">
<title>MessageCardComponent</title>
<polygon fill="#ffffb3" stroke="black" points="3861.52,-84.8 3704.48,-84.8 3704.48,-48.8 3861.52,-48.8 3861.52,-84.8"/>
<text text-anchor="middle" x="3783" y="-62.6" font-family="Times,serif" font-size="14.00">MessageCardComponent</text>
</g>
<!-- MessageCardComponent&#45;&gt;AppModule -->
<g id="edge20" class="edge">
<title>MessageCardComponent&#45;&gt;AppModule</title>
<path fill="none" stroke="black" d="M3724.53,-84.91C3724.53,-84.91 3724.53,-103.79 3724.53,-103.79"/>
<polygon fill="black" stroke="black" points="3721.03,-103.79 3724.53,-113.79 3728.03,-103.79 3721.03,-103.79"/>
</g>
<!-- MissionComponent -->
<g id="node21" class="node">
<title>MissionComponent</title>
<polygon fill="#ffffb3" stroke="black" points="3686.45,-84.8 3559.55,-84.8 3559.55,-48.8 3686.45,-48.8 3686.45,-84.8"/>
<text text-anchor="middle" x="3623" y="-62.6" font-family="Times,serif" font-size="14.00">MissionComponent</text>
</g>
<!-- MissionComponent&#45;&gt;AppModule -->
<g id="edge21" class="edge">
<title>MissionComponent&#45;&gt;AppModule</title>
<path fill="none" stroke="black" d="M3673.7,-84.91C3673.7,-84.91 3673.7,-103.79 3673.7,-103.79"/>
<polygon fill="black" stroke="black" points="3670.2,-103.79 3673.7,-113.79 3677.2,-103.79 3670.2,-103.79"/>
</g>
<!-- NavbarComponent -->
<g id="node22" class="node">
<title>NavbarComponent</title>
<polygon fill="#ffffb3" stroke="black" points="3542.03,-84.8 3419.97,-84.8 3419.97,-48.8 3542.03,-48.8 3542.03,-84.8"/>
<text text-anchor="middle" x="3481" y="-62.6" font-family="Times,serif" font-size="14.00">NavbarComponent</text>
</g>
<!-- NavbarComponent&#45;&gt;AppModule -->
<g id="edge22" class="edge">
<title>NavbarComponent&#45;&gt;AppModule</title>
<path fill="none" stroke="black" d="M3481,-85.05C3481,-98.98 3481,-115.8 3481,-115.8 3481,-115.8 3651.24,-115.8 3651.24,-115.8"/>
<polygon fill="black" stroke="black" points="3651.24,-119.3 3661.24,-115.8 3651.24,-112.3 3651.24,-119.3"/>
</g>
<!-- NotificationsComponent -->
<g id="node23" class="node">
<title>NotificationsComponent</title>
<polygon fill="#ffffb3" stroke="black" points="3402.43,-84.8 3247.57,-84.8 3247.57,-48.8 3402.43,-48.8 3402.43,-84.8"/>
<text text-anchor="middle" x="3325" y="-62.6" font-family="Times,serif" font-size="14.00">NotificationsComponent</text>
</g>
<!-- NotificationsComponent&#45;&gt;AppModule -->
<g id="edge23" class="edge">
<title>NotificationsComponent&#45;&gt;AppModule</title>
<path fill="none" stroke="black" d="M3325,-84.92C3325,-99.58 3325,-117.8 3325,-117.8 3325,-117.8 3651.1,-117.8 3651.1,-117.8"/>
<polygon fill="black" stroke="black" points="3651.1,-121.3 3661.1,-117.8 3651.1,-114.3 3651.1,-121.3"/>
</g>
<!-- PageSelectionComponent -->
<g id="node24" class="node">
<title>PageSelectionComponent</title>
<polygon fill="#ffffb3" stroke="black" points="3229.14,-84.8 3068.86,-84.8 3068.86,-48.8 3229.14,-48.8 3229.14,-84.8"/>
<text text-anchor="middle" x="3149" y="-62.6" font-family="Times,serif" font-size="14.00">PageSelectionComponent</text>
</g>
<!-- PageSelectionComponent&#45;&gt;AppModule -->
<g id="edge24" class="edge">
<title>PageSelectionComponent&#45;&gt;AppModule</title>
<path fill="none" stroke="black" d="M3149,-84.99C3149,-99.98 3149,-118.8 3149,-118.8 3149,-118.8 3650.91,-118.8 3650.91,-118.8"/>
<polygon fill="black" stroke="black" points="3650.91,-122.3 3660.91,-118.8 3650.91,-115.3 3650.91,-122.3"/>
</g>
<!-- PostCardComponent -->
<g id="node25" class="node">
<title>PostCardComponent</title>
<polygon fill="#ffffb3" stroke="black" points="3050.16,-84.8 2917.84,-84.8 2917.84,-48.8 3050.16,-48.8 3050.16,-84.8"/>
<text text-anchor="middle" x="2984" y="-62.6" font-family="Times,serif" font-size="14.00">PostCardComponent</text>
</g>
<!-- PostCardComponent&#45;&gt;AppModule -->
<g id="edge25" class="edge">
<title>PostCardComponent&#45;&gt;AppModule</title>
<path fill="none" stroke="black" d="M2984,-85.08C2984,-100.75 2984,-120.8 2984,-120.8 2984,-120.8 3651.24,-120.8 3651.24,-120.8"/>
<polygon fill="black" stroke="black" points="3651.24,-124.3 3661.24,-120.8 3651.24,-117.3 3651.24,-124.3"/>
</g>
<!-- PrivacyComponent -->
<g id="node26" class="node">
<title>PrivacyComponent</title>
<polygon fill="#ffffb3" stroke="black" points="2900.1,-84.8 2775.9,-84.8 2775.9,-48.8 2900.1,-48.8 2900.1,-84.8"/>
<text text-anchor="middle" x="2838" y="-62.6" font-family="Times,serif" font-size="14.00">PrivacyComponent</text>
</g>
<!-- PrivacyComponent&#45;&gt;AppModule -->
<g id="edge26" class="edge">
<title>PrivacyComponent&#45;&gt;AppModule</title>
<path fill="none" stroke="black" d="M2838,-84.83C2838,-101.2 2838,-122.8 2838,-122.8 2838,-122.8 3651.28,-122.8 3651.28,-122.8"/>
<polygon fill="black" stroke="black" points="3651.28,-126.3 3661.28,-122.8 3651.28,-119.3 3651.28,-126.3"/>
</g>
<!-- ProfileCardComponent -->
<g id="node27" class="node">
<title>ProfileCardComponent</title>
<polygon fill="#ffffb3" stroke="black" points="2758.14,-84.8 2611.86,-84.8 2611.86,-48.8 2758.14,-48.8 2758.14,-84.8"/>
<text text-anchor="middle" x="2685" y="-62.6" font-family="Times,serif" font-size="14.00">ProfileCardComponent</text>
</g>
<!-- ProfileCardComponent&#45;&gt;AppModule -->
<g id="edge27" class="edge">
<title>ProfileCardComponent&#45;&gt;AppModule</title>
<path fill="none" stroke="black" d="M2685,-84.84C2685,-101.53 2685,-123.8 2685,-123.8 2685,-123.8 3651.2,-123.8 3651.2,-123.8"/>
<polygon fill="black" stroke="black" points="3651.2,-127.3 3661.2,-123.8 3651.2,-120.3 3651.2,-127.3"/>
</g>
<!-- ProfileHeadComponent -->
<g id="node28" class="node">
<title>ProfileHeadComponent</title>
<polygon fill="#ffffb3" stroke="black" points="2593.47,-84.8 2444.53,-84.8 2444.53,-48.8 2593.47,-48.8 2593.47,-84.8"/>
<text text-anchor="middle" x="2519" y="-62.6" font-family="Times,serif" font-size="14.00">ProfileHeadComponent</text>
</g>
<!-- ProfileHeadComponent&#45;&gt;AppModule -->
<g id="edge28" class="edge">
<title>ProfileHeadComponent&#45;&gt;AppModule</title>
<path fill="none" stroke="black" d="M2519,-84.82C2519,-102.17 2519,-125.8 2519,-125.8 2519,-125.8 3651.21,-125.8 3651.21,-125.8"/>
<polygon fill="black" stroke="black" points="3651.21,-129.3 3661.21,-125.8 3651.21,-122.3 3651.21,-129.3"/>
</g>
<!-- ProfileNewPostComponent -->
<g id="node29" class="node">
<title>ProfileNewPostComponent</title>
<polygon fill="#ffffb3" stroke="black" points="2426.98,-84.8 2257.02,-84.8 2257.02,-48.8 2426.98,-48.8 2426.98,-84.8"/>
<text text-anchor="middle" x="2342" y="-62.6" font-family="Times,serif" font-size="14.00">ProfileNewPostComponent</text>
</g>
<!-- ProfileNewPostComponent&#45;&gt;AppModule -->
<g id="edge29" class="edge">
<title>ProfileNewPostComponent&#45;&gt;AppModule</title>
<path fill="none" stroke="black" d="M2342,-85.1C2342,-103.07 2342,-127.8 2342,-127.8 2342,-127.8 3651.15,-127.8 3651.15,-127.8"/>
<polygon fill="black" stroke="black" points="3651.15,-131.3 3661.15,-127.8 3651.15,-124.3 3651.15,-131.3"/>
</g>
<!-- ProfilePageComponent -->
<g id="node30" class="node">
<title>ProfilePageComponent</title>
<polygon fill="#ffffb3" stroke="black" points="2239.14,-84.8 2092.86,-84.8 2092.86,-48.8 2239.14,-48.8 2239.14,-84.8"/>
<text text-anchor="middle" x="2166" y="-62.6" font-family="Times,serif" font-size="14.00">ProfilePageComponent</text>
</g>
<!-- ProfilePageComponent&#45;&gt;AppModule -->
<g id="edge30" class="edge">
<title>ProfilePageComponent&#45;&gt;AppModule</title>
<path fill="none" stroke="black" d="M2166,-85.07C2166,-103.36 2166,-128.8 2166,-128.8 2166,-128.8 3651.09,-128.8 3651.09,-128.8"/>
<polygon fill="black" stroke="black" points="3651.09,-132.3 3661.09,-128.8 3651.09,-125.3 3651.09,-132.3"/>
</g>
<!-- ProfileSettingsComponent -->
<g id="node31" class="node">
<title>ProfileSettingsComponent</title>
<polygon fill="#ffffb3" stroke="black" points="2074.05,-84.8 1909.95,-84.8 1909.95,-48.8 2074.05,-48.8 2074.05,-84.8"/>
<text text-anchor="middle" x="1992" y="-62.6" font-family="Times,serif" font-size="14.00">ProfileSettingsComponent</text>
</g>
<!-- ProfileSettingsComponent&#45;&gt;AppModule -->
<g id="edge31" class="edge">
<title>ProfileSettingsComponent&#45;&gt;AppModule</title>
<path fill="none" stroke="black" d="M1992,-84.97C1992,-103.89 1992,-130.8 1992,-130.8 1992,-130.8 3651.13,-130.8 3651.13,-130.8"/>
<polygon fill="black" stroke="black" points="3651.13,-134.3 3661.13,-130.8 3651.13,-127.3 3651.13,-134.3"/>
</g>
<!-- RatingComponent -->
<g id="node32" class="node">
<title>RatingComponent</title>
<polygon fill="#ffffb3" stroke="black" points="1891.17,-84.8 1772.83,-84.8 1772.83,-48.8 1891.17,-48.8 1891.17,-84.8"/>
<text text-anchor="middle" x="1832" y="-62.6" font-family="Times,serif" font-size="14.00">RatingComponent</text>
</g>
<!-- RatingComponent&#45;&gt;AppModule -->
<g id="edge32" class="edge">
<title>RatingComponent&#45;&gt;AppModule</title>
<path fill="none" stroke="black" d="M1832,-84.91C1832,-104.14 1832,-131.8 1832,-131.8 1832,-131.8 3651.3,-131.8 3651.3,-131.8"/>
<polygon fill="black" stroke="black" points="3651.3,-135.3 3661.3,-131.8 3651.3,-128.3 3651.3,-135.3"/>
</g>
<!-- RelationsPageComponent -->
<g id="node33" class="node">
<title>RelationsPageComponent</title>
<polygon fill="#ffffb3" stroke="black" points="1754.93,-84.8 1593.07,-84.8 1593.07,-48.8 1754.93,-48.8 1754.93,-84.8"/>
<text text-anchor="middle" x="1674" y="-62.6" font-family="Times,serif" font-size="14.00">RelationsPageComponent</text>
</g>
<!-- RelationsPageComponent&#45;&gt;AppModule -->
<g id="edge33" class="edge">
<title>RelationsPageComponent&#45;&gt;AppModule</title>
<path fill="none" stroke="black" d="M1674,-85.11C1674,-104.95 1674,-133.8 1674,-133.8 1674,-133.8 3651.09,-133.8 3651.09,-133.8"/>
<polygon fill="black" stroke="black" points="3651.09,-137.3 3661.09,-133.8 3651.09,-130.3 3651.09,-137.3"/>
</g>
<!-- RightPanelComponent -->
<g id="node34" class="node">
<title>RightPanelComponent</title>
<polygon fill="#ffffb3" stroke="black" points="1575.55,-84.8 1432.45,-84.8 1432.45,-48.8 1575.55,-48.8 1575.55,-84.8"/>
<text text-anchor="middle" x="1504" y="-62.6" font-family="Times,serif" font-size="14.00">RightPanelComponent</text>
</g>
<!-- RightPanelComponent&#45;&gt;AppModule -->
<g id="edge34" class="edge">
<title>RightPanelComponent&#45;&gt;AppModule</title>
<path fill="none" stroke="black" d="M1504,-84.93C1504,-105.37 1504,-135.8 1504,-135.8 1504,-135.8 3651.04,-135.8 3651.04,-135.8"/>
<polygon fill="black" stroke="black" points="3651.04,-139.3 3661.04,-135.8 3651.04,-132.3 3651.04,-139.3"/>
</g>
<!-- RightPanelProfileComponent -->
<g id="node35" class="node">
<title>RightPanelProfileComponent</title>
<polygon fill="#ffffb3" stroke="black" points="1413.65,-84.8 1232.35,-84.8 1232.35,-48.8 1413.65,-48.8 1413.65,-84.8"/>
<text text-anchor="middle" x="1323" y="-62.6" font-family="Times,serif" font-size="14.00">RightPanelProfileComponent</text>
</g>
<!-- RightPanelProfileComponent&#45;&gt;AppModule -->
<g id="edge35" class="edge">
<title>RightPanelProfileComponent&#45;&gt;AppModule</title>
<path fill="none" stroke="black" d="M1323,-84.83C1323,-105.57 1323,-136.8 1323,-136.8 1323,-136.8 3651.19,-136.8 3651.19,-136.8"/>
<polygon fill="black" stroke="black" points="3651.19,-140.3 3661.19,-136.8 3651.19,-133.3 3651.19,-140.3"/>
</g>
<!-- RightSpacerComponent -->
<g id="node36" class="node">
<title>RightSpacerComponent</title>
<polygon fill="#ffffb3" stroke="black" points="1214.04,-84.8 1063.96,-84.8 1063.96,-48.8 1214.04,-48.8 1214.04,-84.8"/>
<text text-anchor="middle" x="1139" y="-62.6" font-family="Times,serif" font-size="14.00">RightSpacerComponent</text>
</g>
<!-- RightSpacerComponent&#45;&gt;AppModule -->
<g id="edge36" class="edge">
<title>RightSpacerComponent&#45;&gt;AppModule</title>
<path fill="none" stroke="black" d="M1139,-84.97C1139,-106.3 1139,-138.8 1139,-138.8 1139,-138.8 3651.16,-138.8 3651.16,-138.8"/>
<polygon fill="black" stroke="black" points="3651.16,-142.3 3661.16,-138.8 3651.16,-135.3 3651.16,-142.3"/>
</g>
<!-- SearchFilterSortComponent -->
<g id="node37" class="node">
<title>SearchFilterSortComponent</title>
<polygon fill="#ffffb3" stroke="black" points="1045.58,-84.8 872.42,-84.8 872.42,-48.8 1045.58,-48.8 1045.58,-84.8"/>
<text text-anchor="middle" x="959" y="-62.6" font-family="Times,serif" font-size="14.00">SearchFilterSortComponent</text>
</g>
<!-- SearchFilterSortComponent&#45;&gt;AppModule -->
<g id="edge37" class="edge">
<title>SearchFilterSortComponent&#45;&gt;AppModule</title>
<path fill="none" stroke="black" d="M959,-85.09C959,-107.01 959,-140.8 959,-140.8 959,-140.8 3651.27,-140.8 3651.27,-140.8"/>
<polygon fill="black" stroke="black" points="3651.27,-144.3 3661.27,-140.8 3651.27,-137.3 3651.27,-144.3"/>
</g>
<!-- SnackbarComponent -->
<g id="node38" class="node">
<title>SnackbarComponent</title>
<polygon fill="#ffffb3" stroke="black" points="854.92,-84.8 721.08,-84.8 721.08,-48.8 854.92,-48.8 854.92,-84.8"/>
<text text-anchor="middle" x="788" y="-62.6" font-family="Times,serif" font-size="14.00">SnackbarComponent</text>
</g>
<!-- SnackbarComponent&#45;&gt;AppModule -->
<g id="edge38" class="edge">
<title>SnackbarComponent&#45;&gt;AppModule</title>
<path fill="none" stroke="black" d="M788,-84.96C788,-107.15 788,-141.8 788,-141.8 788,-141.8 3651.23,-141.8 3651.23,-141.8"/>
<polygon fill="black" stroke="black" points="3651.23,-145.3 3661.23,-141.8 3651.23,-138.3 3651.23,-145.3"/>
</g>
<!-- StarRatingComponent -->
<g id="node39" class="node">
<title>StarRatingComponent</title>
<polygon fill="#ffffb3" stroke="black" points="703.71,-84.8 562.29,-84.8 562.29,-48.8 703.71,-48.8 703.71,-84.8"/>
<text text-anchor="middle" x="633" y="-62.6" font-family="Times,serif" font-size="14.00">StarRatingComponent</text>
</g>
<!-- StarRatingComponent&#45;&gt;AppModule -->
<g id="edge39" class="edge">
<title>StarRatingComponent&#45;&gt;AppModule</title>
<path fill="none" stroke="black" d="M633,-85.05C633,-107.82 633,-143.8 633,-143.8 633,-143.8 3651.06,-143.8 3651.06,-143.8"/>
<polygon fill="black" stroke="black" points="3651.06,-147.3 3661.06,-143.8 3651.06,-140.3 3651.06,-147.3"/>
</g>
<!-- ThreadOverviewComponent -->
<g id="node40" class="node">
<title>ThreadOverviewComponent</title>
<polygon fill="#ffffb3" stroke="black" points="544.17,-84.8 367.83,-84.8 367.83,-48.8 544.17,-48.8 544.17,-84.8"/>
<text text-anchor="middle" x="456" y="-62.6" font-family="Times,serif" font-size="14.00">ThreadOverviewComponent</text>
</g>
<!-- ThreadOverviewComponent&#45;&gt;AppModule -->
<g id="edge40" class="edge">
<title>ThreadOverviewComponent&#45;&gt;AppModule</title>
<path fill="none" stroke="black" d="M456,-85.12C456,-108.46 456,-145.8 456,-145.8 456,-145.8 3651.06,-145.8 3651.06,-145.8"/>
<polygon fill="black" stroke="black" points="3651.06,-149.3 3661.06,-145.8 3651.06,-142.3 3651.06,-149.3"/>
</g>
<!-- UnauthorizedComponent -->
<g id="node41" class="node">
<title>UnauthorizedComponent</title>
<polygon fill="#ffffb3" stroke="black" points="349.53,-84.8 192.47,-84.8 192.47,-48.8 349.53,-48.8 349.53,-84.8"/>
<text text-anchor="middle" x="271" y="-62.6" font-family="Times,serif" font-size="14.00">UnauthorizedComponent</text>
</g>
<!-- UnauthorizedComponent&#45;&gt;AppModule -->
<g id="edge41" class="edge">
<title>UnauthorizedComponent&#45;&gt;AppModule</title>
<path fill="none" stroke="black" d="M271,-84.95C271,-108.56 271,-146.8 271,-146.8 271,-146.8 3651.15,-146.8 3651.15,-146.8"/>
<polygon fill="black" stroke="black" points="3651.15,-150.3 3661.15,-146.8 3651.15,-143.3 3651.15,-150.3"/>
</g>
<!-- UserRatingsComponent -->
<g id="node42" class="node">
<title>UserRatingsComponent</title>
<polygon fill="#ffffb3" stroke="black" points="174.04,-84.8 23.96,-84.8 23.96,-48.8 174.04,-48.8 174.04,-84.8"/>
<text text-anchor="middle" x="99" y="-62.6" font-family="Times,serif" font-size="14.00">UserRatingsComponent</text>
</g>
<!-- UserRatingsComponent&#45;&gt;AppModule -->
<g id="edge42" class="edge">
<title>UserRatingsComponent&#45;&gt;AppModule</title>
<path fill="none" stroke="black" d="M99,-85C99,-109.16 99,-148.8 99,-148.8 99,-148.8 3651.28,-148.8 3651.28,-148.8"/>
<polygon fill="black" stroke="black" points="3651.28,-152.3 3661.28,-148.8 3651.28,-145.3 3651.28,-152.3"/>
</g>
<!-- AppComponent  -->
<g id="node46" class="node">
<title>AppComponent </title>
<polygon fill="#80b1d3" stroke="black" points="3757.44,-214.8 3648.56,-214.8 3648.56,-178.8 3757.44,-178.8 3757.44,-214.8"/>
<text text-anchor="middle" x="3703" y="-192.6" font-family="Times,serif" font-size="14.00">AppComponent </text>
</g>
<!-- AppModule&#45;&gt;AppComponent  -->
<g id="edge45" class="edge">
<title>AppModule&#45;&gt;AppComponent </title>
<path fill="none" stroke="black" stroke-dasharray="1,5" d="M3703,-149.91C3703,-149.91 3703,-168.79 3703,-168.79"/>
<polygon fill="black" stroke="black" points="3699.5,-168.79 3703,-178.79 3706.5,-168.79 3699.5,-168.79"/>
</g>
<!-- AngularMaterialModule -->
<g id="node44" class="node">
<title>AngularMaterialModule</title>
<polygon fill="#8dd3c7" stroke="black" points="7212.34,-84.8 7209.34,-88.8 7188.34,-88.8 7185.34,-84.8 7059.66,-84.8 7059.66,-48.8 7212.34,-48.8 7212.34,-84.8"/>
<text text-anchor="middle" x="7136" y="-62.6" font-family="Times,serif" font-size="14.00">AngularMaterialModule</text>
</g>
<!-- AngularMaterialModule&#45;&gt;AppModule -->
<g id="edge43" class="edge">
<title>AngularMaterialModule&#45;&gt;AppModule</title>
<path fill="none" stroke="black" d="M7136,-85C7136,-109.16 7136,-148.8 7136,-148.8 7136,-148.8 3754.86,-148.8 3754.86,-148.8"/>
<polygon fill="black" stroke="black" points="3754.86,-145.3 3744.86,-148.8 3754.86,-152.3 3754.86,-145.3"/>
</g>
<!-- AppRoutingModule -->
<g id="node45" class="node">
<title>AppRoutingModule</title>
<polygon fill="#8dd3c7" stroke="black" points="7041.27,-84.8 7038.27,-88.8 7017.27,-88.8 7014.27,-84.8 6912.73,-84.8 6912.73,-48.8 7041.27,-48.8 7041.27,-84.8"/>
<text text-anchor="middle" x="6977" y="-62.6" font-family="Times,serif" font-size="14.00">AppRoutingModule</text>
</g>
<!-- AppRoutingModule&#45;&gt;AppModule -->
<g id="edge44" class="edge">
<title>AppRoutingModule&#45;&gt;AppModule</title>
<path fill="none" stroke="black" d="M6977,-84.95C6977,-108.56 6977,-146.8 6977,-146.8 6977,-146.8 3754.69,-146.8 3754.69,-146.8"/>
<polygon fill="black" stroke="black" points="3754.69,-143.3 3744.69,-146.8 3754.69,-150.3 3754.69,-143.3"/>
</g>
</g>
</svg>
