<?xml version="1.0" encoding="UTF-8" standalone="no"?>
<!DOCTYPE svg PUBLIC "-//W3C//DTD SVG 1.1//EN"
 "http://www.w3.org/Graphics/SVG/1.1/DTD/svg11.dtd">
<!-- Generated by graphviz version 2.47.3 (20210619.1520)
 -->
<!-- Title: dependencies Pages: 1 -->
<svg width="7244pt" height="247pt"
 viewBox="0.00 0.00 7244.00 246.80" xmlns="http://www.w3.org/2000/svg" xmlns:xlink="http://www.w3.org/1999/xlink">
<g id="graph0" class="graph" transform="scale(1 1) rotate(0) translate(4 242.8)">
<title>dependencies</title>
<polygon fill="white" stroke="transparent" points="-4,4 -4,-242.8 7240,-242.8 7240,4 -4,4"/>
<text text-anchor="middle" x="3618" y="-8.2" font-family="sans-serif" font-size="14.00">dependencies</text>
<g id="clust7" class="cluster">
<title>cluster_AppModule</title>
<polygon fill="none" stroke="black" stroke-dasharray="1,5" points="8,-32.8 8,-230.8 7228,-230.8 7228,-32.8 8,-32.8"/>
</g>
<g id="clust8" class="cluster">
<title>cluster_AppModule_declarations</title>
<polygon fill="none" stroke="black" points="339,-40.8 339,-92.8 7220,-92.8 7220,-40.8 339,-40.8"/>
</g>
<g id="clust51" class="cluster">
<title>cluster_AppModule_imports</title>
<polygon fill="none" stroke="black" points="16,-40.8 16,-92.8 331,-92.8 331,-40.8 16,-40.8"/>
</g>
<g id="clust53" class="cluster">
<title>cluster_AppModule_bootstrap</title>
<polygon fill="none" stroke="black" points="3664,-170.8 3664,-222.8 3788,-222.8 3788,-170.8 3664,-170.8"/>
</g>
<!-- AdminPageComponent -->
<g id="node1" class="node">
<title>AdminPageComponent</title>
<polygon fill="#ffffb3" stroke="black" points="7211.93,-84.8 7064.07,-84.8 7064.07,-48.8 7211.93,-48.8 7211.93,-84.8"/>
<text text-anchor="middle" x="7138" y="-62.6" font-family="Times,serif" font-size="14.00">AdminPageComponent</text>
</g>
<!-- AppModule -->
<g id="node43" class="node">
<title>AppModule</title>
<polygon fill="#8dd3c7" stroke="black" points="3767.66,-149.8 3764.66,-153.8 3743.66,-153.8 3740.66,-149.8 3684.34,-149.8 3684.34,-113.8 3767.66,-113.8 3767.66,-149.8"/>
<text text-anchor="middle" x="3726" y="-127.6" font-family="Times,serif" font-size="14.00">AppModule</text>
</g>
<!-- AdminPageComponent&#45;&gt;AppModule -->
<g id="edge1" class="edge">
<title>AdminPageComponent&#45;&gt;AppModule</title>
<path fill="none" stroke="black" d="M7138,-85C7138,-109.16 7138,-148.8 7138,-148.8 7138,-148.8 3777.91,-148.8 3777.91,-148.8"/>
<polygon fill="black" stroke="black" points="3777.91,-145.3 3767.91,-148.8 3777.91,-152.3 3777.91,-145.3"/>
</g>
<!-- AppComponent -->
<g id="node2" class="node">
<title>AppComponent</title>
<polygon fill="#ffffb3" stroke="black" points="7046.94,-84.8 6941.06,-84.8 6941.06,-48.8 7046.94,-48.8 7046.94,-84.8"/>
<text text-anchor="middle" x="6994" y="-62.6" font-family="Times,serif" font-size="14.00">AppComponent</text>
</g>
<!-- AppComponent&#45;&gt;AppModule -->
<g id="edge2" class="edge">
<title>AppComponent&#45;&gt;AppModule</title>
<path fill="none" stroke="black" d="M6994,-84.95C6994,-108.56 6994,-146.8 6994,-146.8 6994,-146.8 3777.92,-146.8 3777.92,-146.8"/>
<polygon fill="black" stroke="black" points="3777.92,-143.3 3767.92,-146.8 3777.92,-150.3 3777.92,-143.3"/>
</g>
<!-- CenterPanelComponent -->
<g id="node3" class="node">
<title>CenterPanelComponent</title>
<polygon fill="#ffffb3" stroke="black" points="6922.75,-84.8 6773.25,-84.8 6773.25,-48.8 6922.75,-48.8 6922.75,-84.8"/>
<text text-anchor="middle" x="6848" y="-62.6" font-family="Times,serif" font-size="14.00">CenterPanelComponent</text>
</g>
<!-- CenterPanelComponent&#45;&gt;AppModule -->
<g id="edge3" class="edge">
<title>CenterPanelComponent&#45;&gt;AppModule</title>
<path fill="none" stroke="black" d="M6848,-85.12C6848,-108.46 6848,-145.8 6848,-145.8 6848,-145.8 3777.77,-145.8 3777.77,-145.8"/>
<polygon fill="black" stroke="black" points="3777.77,-142.3 3767.77,-145.8 3777.77,-149.3 3777.77,-142.3"/>
</g>
<!-- ChatComponent -->
<g id="node4" class="node">
<title>ChatComponent</title>
<polygon fill="#ffffb3" stroke="black" points="6754.77,-84.8 6647.23,-84.8 6647.23,-48.8 6754.77,-48.8 6754.77,-84.8"/>
<text text-anchor="middle" x="6701" y="-62.6" font-family="Times,serif" font-size="14.00">ChatComponent</text>
</g>
<!-- ChatComponent&#45;&gt;AppModule -->
<g id="edge4" class="edge">
<title>ChatComponent&#45;&gt;AppModule</title>
<path fill="none" stroke="black" d="M6701,-85.05C6701,-107.82 6701,-143.8 6701,-143.8 6701,-143.8 3777.77,-143.8 3777.77,-143.8"/>
<polygon fill="black" stroke="black" points="3777.77,-140.3 3767.77,-143.8 3777.77,-147.3 3777.77,-140.3"/>
</g>
<!-- CreatingNewPostCardComponent -->
<g id="node5" class="node">
<title>CreatingNewPostCardComponent</title>
<polygon fill="#ffffb3" stroke="black" points="6628.8,-84.8 6421.2,-84.8 6421.2,-48.8 6628.8,-48.8 6628.8,-84.8"/>
<text text-anchor="middle" x="6525" y="-62.6" font-family="Times,serif" font-size="14.00">CreatingNewPostCardComponent</text>
</g>
<!-- CreatingNewPostCardComponent&#45;&gt;AppModule -->
<g id="edge5" class="edge">
<title>CreatingNewPostCardComponent&#45;&gt;AppModule</title>
<path fill="none" stroke="black" d="M6525,-84.96C6525,-107.15 6525,-141.8 6525,-141.8 6525,-141.8 3777.74,-141.8 3777.74,-141.8"/>
<polygon fill="black" stroke="black" points="3777.74,-138.3 3767.74,-141.8 3777.74,-145.3 3777.74,-138.3"/>
</g>
<!-- DialogComponent -->
<g id="node6" class="node">
<title>DialogComponent</title>
<polygon fill="#ffffb3" stroke="black" points="6403.94,-84.8 6284.06,-84.8 6284.06,-48.8 6403.94,-48.8 6403.94,-84.8"/>
<text text-anchor="middle" x="6344" y="-62.6" font-family="Times,serif" font-size="14.00">DialogComponent</text>
</g>
<!-- DialogComponent&#45;&gt;AppModule -->
<g id="edge6" class="edge">
<title>DialogComponent&#45;&gt;AppModule</title>
<path fill="none" stroke="black" d="M6344,-85.09C6344,-107.01 6344,-140.8 6344,-140.8 6344,-140.8 3777.92,-140.8 3777.92,-140.8"/>
<polygon fill="black" stroke="black" points="3777.92,-137.3 3767.92,-140.8 3777.92,-144.3 3777.92,-137.3"/>
</g>
<!-- FooterComponent -->
<g id="node7" class="node">
<title>FooterComponent</title>
<polygon fill="#ffffb3" stroke="black" points="6265.88,-84.8 6148.12,-84.8 6148.12,-48.8 6265.88,-48.8 6265.88,-84.8"/>
<text text-anchor="middle" x="6207" y="-62.6" font-family="Times,serif" font-size="14.00">FooterComponent</text>
</g>
<!-- FooterComponent&#45;&gt;AppModule -->
<g id="edge7" class="edge">
<title>FooterComponent&#45;&gt;AppModule</title>
<path fill="none" stroke="black" d="M6207,-84.97C6207,-106.3 6207,-138.8 6207,-138.8 6207,-138.8 3777.76,-138.8 3777.76,-138.8"/>
<polygon fill="black" stroke="black" points="3777.76,-135.3 3767.76,-138.8 3777.76,-142.3 3777.76,-135.3"/>
</g>
<!-- ForumComponent -->
<g id="node8" class="node">
<title>ForumComponent</title>
<polygon fill="#ffffb3" stroke="black" points="6130.17,-84.8 6011.83,-84.8 6011.83,-48.8 6130.17,-48.8 6130.17,-84.8"/>
<text text-anchor="middle" x="6071" y="-62.6" font-family="Times,serif" font-size="14.00">ForumComponent</text>
</g>
<!-- ForumComponent&#45;&gt;AppModule -->
<g id="edge8" class="edge">
<title>ForumComponent&#45;&gt;AppModule</title>
<path fill="none" stroke="black" d="M6071,-84.83C6071,-105.57 6071,-136.8 6071,-136.8 6071,-136.8 3777.7,-136.8 3777.7,-136.8"/>
<polygon fill="black" stroke="black" points="3777.7,-133.3 3767.7,-136.8 3777.7,-140.3 3777.7,-133.3"/>
</g>
<!-- ForumThreadComponent -->
<g id="node9" class="node">
<title>ForumThreadComponent</title>
<polygon fill="#ffffb3" stroke="black" points="5994.31,-84.8 5835.69,-84.8 5835.69,-48.8 5994.31,-48.8 5994.31,-84.8"/>
<text text-anchor="middle" x="5915" y="-62.6" font-family="Times,serif" font-size="14.00">ForumThreadComponent</text>
</g>
<!-- ForumThreadComponent&#45;&gt;AppModule -->
<g id="edge9" class="edge">
<title>ForumThreadComponent&#45;&gt;AppModule</title>
<path fill="none" stroke="black" d="M5915,-84.93C5915,-105.37 5915,-135.8 5915,-135.8 5915,-135.8 3777.77,-135.8 3777.77,-135.8"/>
<polygon fill="black" stroke="black" points="3777.77,-132.3 3767.77,-135.8 3777.77,-139.3 3777.77,-132.3"/>
</g>
<!-- ImprintComponent -->
<g id="node10" class="node">
<title>ImprintComponent</title>
<polygon fill="#ffffb3" stroke="black" points="5817.83,-84.8 5694.17,-84.8 5694.17,-48.8 5817.83,-48.8 5817.83,-84.8"/>
<text text-anchor="middle" x="5756" y="-62.6" font-family="Times,serif" font-size="14.00">ImprintComponent</text>
</g>
<!-- ImprintComponent&#45;&gt;AppModule -->
<g id="edge10" class="edge">
<title>ImprintComponent&#45;&gt;AppModule</title>
<path fill="none" stroke="black" d="M5756,-85.11C5756,-104.95 5756,-133.8 5756,-133.8 5756,-133.8 3777.93,-133.8 3777.93,-133.8"/>
<polygon fill="black" stroke="black" points="3777.93,-130.3 3767.93,-133.8 3777.93,-137.3 3777.93,-130.3"/>
</g>
<!-- InterestingMentorsComponent -->
<g id="node11" class="node">
<title>InterestingMentorsComponent</title>
<polygon fill="#ffffb3" stroke="black" points="5675.85,-84.8 5488.15,-84.8 5488.15,-48.8 5675.85,-48.8 5675.85,-84.8"/>
<text text-anchor="middle" x="5582" y="-62.6" font-family="Times,serif" font-size="14.00">InterestingMentorsComponent</text>
</g>
<!-- InterestingMentorsComponent&#45;&gt;AppModule -->
<g id="edge11" class="edge">
<title>InterestingMentorsComponent&#45;&gt;AppModule</title>
<path fill="none" stroke="black" d="M5582,-84.91C5582,-104.14 5582,-131.8 5582,-131.8 5582,-131.8 3777.81,-131.8 3777.81,-131.8"/>
<polygon fill="black" stroke="black" points="3777.81,-128.3 3767.81,-131.8 3777.81,-135.3 3777.81,-128.3"/>
</g>
<!-- JobProfilesComponent -->
<g id="node12" class="node">
<title>JobProfilesComponent</title>
<polygon fill="#ffffb3" stroke="black" points="5470.32,-84.8 5325.68,-84.8 5325.68,-48.8 5470.32,-48.8 5470.32,-84.8"/>
<text text-anchor="middle" x="5398" y="-62.6" font-family="Times,serif" font-size="14.00">JobProfilesComponent</text>
</g>
<!-- JobProfilesComponent&#45;&gt;AppModule -->
<g id="edge12" class="edge">
<title>JobProfilesComponent&#45;&gt;AppModule</title>
<path fill="none" stroke="black" d="M5398,-84.97C5398,-103.89 5398,-130.8 5398,-130.8 5398,-130.8 3777.75,-130.8 3777.75,-130.8"/>
<polygon fill="black" stroke="black" points="3777.75,-127.3 3767.75,-130.8 3777.75,-134.3 3777.75,-127.3"/>
</g>
<!-- LandingPageComponent -->
<g id="node13" class="node">
<title>LandingPageComponent</title>
<polygon fill="#ffffb3" stroke="black" points="5307.7,-84.8 5152.3,-84.8 5152.3,-48.8 5307.7,-48.8 5307.7,-84.8"/>
<text text-anchor="middle" x="5230" y="-62.6" font-family="Times,serif" font-size="14.00">LandingPageComponent</text>
</g>
<!-- LandingPageComponent&#45;&gt;AppModule -->
<g id="edge13" class="edge">
<title>LandingPageComponent&#45;&gt;AppModule</title>
<path fill="none" stroke="black" d="M5230,-85.07C5230,-103.36 5230,-128.8 5230,-128.8 5230,-128.8 3777.8,-128.8 3777.8,-128.8"/>
<polygon fill="black" stroke="black" points="3777.8,-125.3 3767.8,-128.8 3777.8,-132.3 3777.8,-125.3"/>
</g>
<!-- LeftPanelComponent -->
<g id="node14" class="node">
<title>LeftPanelComponent</title>
<polygon fill="#ffffb3" stroke="black" points="5134.75,-84.8 4999.25,-84.8 4999.25,-48.8 5134.75,-48.8 5134.75,-84.8"/>
<text text-anchor="middle" x="5067" y="-62.6" font-family="Times,serif" font-size="14.00">LeftPanelComponent</text>
</g>
<!-- LeftPanelComponent&#45;&gt;AppModule -->
<g id="edge14" class="edge">
<title>LeftPanelComponent&#45;&gt;AppModule</title>
<path fill="none" stroke="black" d="M5067,-85.1C5067,-103.07 5067,-127.8 5067,-127.8 5067,-127.8 3777.98,-127.8 3777.98,-127.8"/>
<polygon fill="black" stroke="black" points="3777.98,-124.3 3767.98,-127.8 3777.98,-131.3 3777.98,-124.3"/>
</g>
<!-- LeftSpacerComponent -->
<g id="node15" class="node">
<title>LeftSpacerComponent</title>
<polygon fill="#ffffb3" stroke="black" points="4981.24,-84.8 4838.76,-84.8 4838.76,-48.8 4981.24,-48.8 4981.24,-84.8"/>
<text text-anchor="middle" x="4910" y="-62.6" font-family="Times,serif" font-size="14.00">LeftSpacerComponent</text>
</g>
<!-- LeftSpacerComponent&#45;&gt;AppModule -->
<g id="edge15" class="edge">
<title>LeftSpacerComponent&#45;&gt;AppModule</title>
<path fill="none" stroke="black" d="M4910,-84.82C4910,-102.17 4910,-125.8 4910,-125.8 4910,-125.8 3777.79,-125.8 3777.79,-125.8"/>
<polygon fill="black" stroke="black" points="3777.79,-122.3 3767.79,-125.8 3777.79,-129.3 3777.79,-122.3"/>
</g>
<!-- LoginBoxComponent -->
<g id="node16" class="node">
<title>LoginBoxComponent</title>
<polygon fill="#ffffb3" stroke="black" points="4821.11,-84.8 4682.89,-84.8 4682.89,-48.8 4821.11,-48.8 4821.11,-84.8"/>
<text text-anchor="middle" x="4752" y="-62.6" font-family="Times,serif" font-size="14.00">LoginBoxComponent</text>
</g>
<!-- LoginBoxComponent&#45;&gt;AppModule -->
<g id="edge16" class="edge">
<title>LoginBoxComponent&#45;&gt;AppModule</title>
<path fill="none" stroke="black" d="M4752,-84.84C4752,-101.53 4752,-123.8 4752,-123.8 4752,-123.8 3777.81,-123.8 3777.81,-123.8"/>
<polygon fill="black" stroke="black" points="3777.81,-120.3 3767.81,-123.8 3777.81,-127.3 3777.81,-120.3"/>
</g>
<!-- MainComponent -->
<g id="node17" class="node">
<title>MainComponent</title>
<polygon fill="#ffffb3" stroke="black" points="4665.38,-84.8 4554.62,-84.8 4554.62,-48.8 4665.38,-48.8 4665.38,-84.8"/>
<text text-anchor="middle" x="4610" y="-62.6" font-family="Times,serif" font-size="14.00">MainComponent</text>
</g>
<!-- MainComponent&#45;&gt;AppModule -->
<g id="edge17" class="edge">
<title>MainComponent&#45;&gt;AppModule</title>
<path fill="none" stroke="black" d="M4610,-84.83C4610,-101.2 4610,-122.8 4610,-122.8 4610,-122.8 3777.75,-122.8 3777.75,-122.8"/>
<polygon fill="black" stroke="black" points="3777.75,-119.3 3767.75,-122.8 3777.75,-126.3 3777.75,-119.3"/>
</g>
<!-- MainPanelComponent -->
<g id="node18" class="node">
<title>MainPanelComponent</title>
<polygon fill="#ffffb3" stroke="black" points="4536.98,-84.8 4395.02,-84.8 4395.02,-48.8 4536.98,-48.8 4536.98,-84.8"/>
<text text-anchor="middle" x="4466" y="-62.6" font-family="Times,serif" font-size="14.00">MainPanelComponent</text>
</g>
<!-- MainPanelComponent&#45;&gt;AppModule -->
<g id="edge18" class="edge">
<title>MainPanelComponent&#45;&gt;AppModule</title>
<path fill="none" stroke="black" d="M4466,-85.08C4466,-100.75 4466,-120.8 4466,-120.8 4466,-120.8 3777.91,-120.8 3777.91,-120.8"/>
<polygon fill="black" stroke="black" points="3777.91,-117.3 3767.91,-120.8 3777.91,-124.3 3777.91,-117.3"/>
</g>
<!-- MentorSpotlightComponent -->
<g id="node19" class="node">
<title>MentorSpotlightComponent</title>
<polygon fill="#ffffb3" stroke="black" points="4376.89,-84.8 4203.11,-84.8 4203.11,-48.8 4376.89,-48.8 4376.89,-84.8"/>
<text text-anchor="middle" x="4290" y="-62.6" font-family="Times,serif" font-size="14.00">MentorSpotlightComponent</text>
</g>
<!-- MentorSpotlightComponent&#45;&gt;AppModule -->
<g id="edge19" class="edge">
<title>MentorSpotlightComponent&#45;&gt;AppModule</title>
<path fill="none" stroke="black" d="M4290,-84.99C4290,-99.98 4290,-118.8 4290,-118.8 4290,-118.8 3777.93,-118.8 3777.93,-118.8"/>
<polygon fill="black" stroke="black" points="3777.93,-115.3 3767.93,-118.8 3777.93,-122.3 3777.93,-115.3"/>
</g>
<!-- MessageCardComponent -->
<g id="node20" class="node">
<title>MessageCardComponent</title>
<polygon fill="#ffffb3" stroke="black" points="4184.52,-84.8 4027.48,-84.8 4027.48,-48.8 4184.52,-48.8 4184.52,-84.8"/>
<text text-anchor="middle" x="4106" y="-62.6" font-family="Times,serif" font-size="14.00">MessageCardComponent</text>
</g>
<!-- MessageCardComponent&#45;&gt;AppModule -->
<g id="edge20" class="edge">
<title>MessageCardComponent&#45;&gt;AppModule</title>
<path fill="none" stroke="black" d="M4106,-84.92C4106,-99.58 4106,-117.8 4106,-117.8 4106,-117.8 3777.75,-117.8 3777.75,-117.8"/>
<polygon fill="black" stroke="black" points="3777.75,-114.3 3767.75,-117.8 3777.75,-121.3 3777.75,-114.3"/>
</g>
<!-- MissionComponent -->
<g id="node21" class="node">
<title>MissionComponent</title>
<polygon fill="#ffffb3" stroke="black" points="4009.45,-84.8 3882.55,-84.8 3882.55,-48.8 4009.45,-48.8 4009.45,-84.8"/>
<text text-anchor="middle" x="3946" y="-62.6" font-family="Times,serif" font-size="14.00">MissionComponent</text>
</g>
<!-- MissionComponent&#45;&gt;AppModule -->
<g id="edge21" class="edge">
<title>MissionComponent&#45;&gt;AppModule</title>
<path fill="none" stroke="black" d="M3946,-85.05C3946,-98.98 3946,-115.8 3946,-115.8 3946,-115.8 3777.9,-115.8 3777.9,-115.8"/>
<polygon fill="black" stroke="black" points="3777.9,-112.3 3767.9,-115.8 3777.9,-119.3 3777.9,-112.3"/>
</g>
<!-- NavbarComponent -->
<g id="node22" class="node">
<title>NavbarComponent</title>
<polygon fill="#ffffb3" stroke="black" points="3865.03,-84.8 3742.97,-84.8 3742.97,-48.8 3865.03,-48.8 3865.03,-84.8"/>
<text text-anchor="middle" x="3804" y="-62.6" font-family="Times,serif" font-size="14.00">NavbarComponent</text>
</g>
<!-- NavbarComponent&#45;&gt;AppModule -->
<g id="edge22" class="edge">
<title>NavbarComponent&#45;&gt;AppModule</title>
<path fill="none" stroke="black" d="M3755.28,-84.91C3755.28,-84.91 3755.28,-103.79 3755.28,-103.79"/>
<polygon fill="black" stroke="black" points="3751.78,-103.79 3755.28,-113.79 3758.78,-103.79 3751.78,-103.79"/>
</g>
<!-- NotificationsComponent -->
<g id="node23" class="node">
<title>NotificationsComponent</title>
<polygon fill="#ffffb3" stroke="black" points="3725.43,-84.8 3570.57,-84.8 3570.57,-48.8 3725.43,-48.8 3725.43,-84.8"/>
<text text-anchor="middle" x="3648" y="-62.6" font-family="Times,serif" font-size="14.00">NotificationsComponent</text>
</g>
<!-- NotificationsComponent&#45;&gt;AppModule -->
<g id="edge23" class="edge">
<title>NotificationsComponent&#45;&gt;AppModule</title>
<path fill="none" stroke="black" d="M3704.69,-84.91C3704.69,-84.91 3704.69,-103.79 3704.69,-103.79"/>
<polygon fill="black" stroke="black" points="3701.19,-103.79 3704.69,-113.79 3708.19,-103.79 3701.19,-103.79"/>
</g>
<!-- PageSelectionComponent -->
<g id="node24" class="node">
<title>PageSelectionComponent</title>
<polygon fill="#ffffb3" stroke="black" points="3552.14,-84.8 3391.86,-84.8 3391.86,-48.8 3552.14,-48.8 3552.14,-84.8"/>
<text text-anchor="middle" x="3472" y="-62.6" font-family="Times,serif" font-size="14.00">PageSelectionComponent</text>
</g>
<!-- PageSelectionComponent&#45;&gt;AppModule -->
<g id="edge24" class="edge">
<title>PageSelectionComponent&#45;&gt;AppModule</title>
<path fill="none" stroke="black" d="M3472,-85.05C3472,-98.98 3472,-115.8 3472,-115.8 3472,-115.8 3674.34,-115.8 3674.34,-115.8"/>
<polygon fill="black" stroke="black" points="3674.34,-119.3 3684.34,-115.8 3674.34,-112.3 3674.34,-119.3"/>
</g>
<!-- PostCardComponent -->
<g id="node25" class="node">
<title>PostCardComponent</title>
<polygon fill="#ffffb3" stroke="black" points="3373.16,-84.8 3240.84,-84.8 3240.84,-48.8 3373.16,-48.8 3373.16,-84.8"/>
<text text-anchor="middle" x="3307" y="-62.6" font-family="Times,serif" font-size="14.00">PostCardComponent</text>
</g>
<!-- PostCardComponent&#45;&gt;AppModule -->
<g id="edge25" class="edge">
<title>PostCardComponent&#45;&gt;AppModule</title>
<path fill="none" stroke="black" d="M3307,-84.92C3307,-99.58 3307,-117.8 3307,-117.8 3307,-117.8 3674.29,-117.8 3674.29,-117.8"/>
<polygon fill="black" stroke="black" points="3674.29,-121.3 3684.29,-117.8 3674.29,-114.3 3674.29,-121.3"/>
</g>
<!-- PrivacyComponent -->
<g id="node26" class="node">
<title>PrivacyComponent</title>
<polygon fill="#ffffb3" stroke="black" points="3223.1,-84.8 3098.9,-84.8 3098.9,-48.8 3223.1,-48.8 3223.1,-84.8"/>
<text text-anchor="middle" x="3161" y="-62.6" font-family="Times,serif" font-size="14.00">PrivacyComponent</text>
</g>
<!-- PrivacyComponent&#45;&gt;AppModule -->
<g id="edge26" class="edge">
<title>PrivacyComponent&#45;&gt;AppModule</title>
<path fill="none" stroke="black" d="M3161,-84.99C3161,-99.98 3161,-118.8 3161,-118.8 3161,-118.8 3673.99,-118.8 3673.99,-118.8"/>
<polygon fill="black" stroke="black" points="3673.99,-122.3 3683.99,-118.8 3673.99,-115.3 3673.99,-122.3"/>
</g>
<!-- ProfileCardComponent -->
<g id="node27" class="node">
<title>ProfileCardComponent</title>
<polygon fill="#ffffb3" stroke="black" points="3081.14,-84.8 2934.86,-84.8 2934.86,-48.8 3081.14,-48.8 3081.14,-84.8"/>
<text text-anchor="middle" x="3008" y="-62.6" font-family="Times,serif" font-size="14.00">ProfileCardComponent</text>
</g>
<!-- ProfileCardComponent&#45;&gt;AppModule -->
<g id="edge27" class="edge">
<title>ProfileCardComponent&#45;&gt;AppModule</title>
<path fill="none" stroke="black" d="M3008,-85.08C3008,-100.75 3008,-120.8 3008,-120.8 3008,-120.8 3674.29,-120.8 3674.29,-120.8"/>
<polygon fill="black" stroke="black" points="3674.29,-124.3 3684.29,-120.8 3674.29,-117.3 3674.29,-124.3"/>
</g>
<!-- ProfileHeadComponent -->
<g id="node28" class="node">
<title>ProfileHeadComponent</title>
<polygon fill="#ffffb3" stroke="black" points="2916.47,-84.8 2767.53,-84.8 2767.53,-48.8 2916.47,-48.8 2916.47,-84.8"/>
<text text-anchor="middle" x="2842" y="-62.6" font-family="Times,serif" font-size="14.00">ProfileHeadComponent</text>
</g>
<!-- ProfileHeadComponent&#45;&gt;AppModule -->
<g id="edge28" class="edge">
<title>ProfileHeadComponent&#45;&gt;AppModule</title>
<path fill="none" stroke="black" d="M2842,-84.83C2842,-101.2 2842,-122.8 2842,-122.8 2842,-122.8 3674.25,-122.8 3674.25,-122.8"/>
<polygon fill="black" stroke="black" points="3674.25,-126.3 3684.25,-122.8 3674.25,-119.3 3674.25,-126.3"/>
</g>
<!-- ProfileNewPostComponent -->
<g id="node29" class="node">
<title>ProfileNewPostComponent</title>
<polygon fill="#ffffb3" stroke="black" points="2749.98,-84.8 2580.02,-84.8 2580.02,-48.8 2749.98,-48.8 2749.98,-84.8"/>
<text text-anchor="middle" x="2665" y="-62.6" font-family="Times,serif" font-size="14.00">ProfileNewPostComponent</text>
</g>
<!-- ProfileNewPostComponent&#45;&gt;AppModule -->
<g id="edge29" class="edge">
<title>ProfileNewPostComponent&#45;&gt;AppModule</title>
<path fill="none" stroke="black" d="M2665,-84.84C2665,-101.53 2665,-123.8 2665,-123.8 2665,-123.8 3674.08,-123.8 3674.08,-123.8"/>
<polygon fill="black" stroke="black" points="3674.08,-127.3 3684.08,-123.8 3674.08,-120.3 3674.08,-127.3"/>
</g>
<!-- ProfilePageComponent -->
<g id="node30" class="node">
<title>ProfilePageComponent</title>
<polygon fill="#ffffb3" stroke="black" points="2562.14,-84.8 2415.86,-84.8 2415.86,-48.8 2562.14,-48.8 2562.14,-84.8"/>
<text text-anchor="middle" x="2489" y="-62.6" font-family="Times,serif" font-size="14.00">ProfilePageComponent</text>
</g>
<!-- ProfilePageComponent&#45;&gt;AppModule -->
<g id="edge30" class="edge">
<title>ProfilePageComponent&#45;&gt;AppModule</title>
<path fill="none" stroke="black" d="M2489,-84.82C2489,-102.17 2489,-125.8 2489,-125.8 2489,-125.8 3674.13,-125.8 3674.13,-125.8"/>
<polygon fill="black" stroke="black" points="3674.13,-129.3 3684.13,-125.8 3674.13,-122.3 3674.13,-129.3"/>
</g>
<!-- ProfileSettingsComponent -->
<g id="node31" class="node">
<title>ProfileSettingsComponent</title>
<polygon fill="#ffffb3" stroke="black" points="2397.05,-84.8 2232.95,-84.8 2232.95,-48.8 2397.05,-48.8 2397.05,-84.8"/>
<text text-anchor="middle" x="2315" y="-62.6" font-family="Times,serif" font-size="14.00">ProfileSettingsComponent</text>
</g>
<!-- ProfileSettingsComponent&#45;&gt;AppModule -->
<g id="edge31" class="edge">
<title>ProfileSettingsComponent&#45;&gt;AppModule</title>
<path fill="none" stroke="black" d="M2315,-85.1C2315,-103.07 2315,-127.8 2315,-127.8 2315,-127.8 3674.15,-127.8 3674.15,-127.8"/>
<polygon fill="black" stroke="black" points="3674.15,-131.3 3684.15,-127.8 3674.15,-124.3 3674.15,-131.3"/>
</g>
<!-- RatingComponent -->
<g id="node32" class="node">
<title>RatingComponent</title>
<polygon fill="#ffffb3" stroke="black" points="2214.17,-84.8 2095.83,-84.8 2095.83,-48.8 2214.17,-48.8 2214.17,-84.8"/>
<text text-anchor="middle" x="2155" y="-62.6" font-family="Times,serif" font-size="14.00">RatingComponent</text>
</g>
<!-- RatingComponent&#45;&gt;AppModule -->
<g id="edge32" class="edge">
<title>RatingComponent&#45;&gt;AppModule</title>
<path fill="none" stroke="black" d="M2155,-85.07C2155,-103.36 2155,-128.8 2155,-128.8 2155,-128.8 3673.98,-128.8 3673.98,-128.8"/>
<polygon fill="black" stroke="black" points="3673.98,-132.3 3683.98,-128.8 3673.98,-125.3 3673.98,-132.3"/>
</g>
<!-- RelationsPageComponent -->
<g id="node33" class="node">
<title>RelationsPageComponent</title>
<polygon fill="#ffffb3" stroke="black" points="2077.93,-84.8 1916.07,-84.8 1916.07,-48.8 2077.93,-48.8 2077.93,-84.8"/>
<text text-anchor="middle" x="1997" y="-62.6" font-family="Times,serif" font-size="14.00">RelationsPageComponent</text>
</g>
<!-- RelationsPageComponent&#45;&gt;AppModule -->
<g id="edge33" class="edge">
<title>RelationsPageComponent&#45;&gt;AppModule</title>
<path fill="none" stroke="black" d="M1997,-84.97C1997,-103.89 1997,-130.8 1997,-130.8 1997,-130.8 3674.12,-130.8 3674.12,-130.8"/>
<polygon fill="black" stroke="black" points="3674.12,-134.3 3684.12,-130.8 3674.12,-127.3 3674.12,-134.3"/>
</g>
<!-- RightPanelComponent -->
<g id="node34" class="node">
<title>RightPanelComponent</title>
<polygon fill="#ffffb3" stroke="black" points="1898.55,-84.8 1755.45,-84.8 1755.45,-48.8 1898.55,-48.8 1898.55,-84.8"/>
<text text-anchor="middle" x="1827" y="-62.6" font-family="Times,serif" font-size="14.00">RightPanelComponent</text>
</g>
<!-- RightPanelComponent&#45;&gt;AppModule -->
<g id="edge34" class="edge">
<title>RightPanelComponent&#45;&gt;AppModule</title>
<path fill="none" stroke="black" d="M1827,-84.91C1827,-104.14 1827,-131.8 1827,-131.8 1827,-131.8 3674.12,-131.8 3674.12,-131.8"/>
<polygon fill="black" stroke="black" points="3674.12,-135.3 3684.12,-131.8 3674.12,-128.3 3674.12,-135.3"/>
</g>
<!-- RightPanelProfileComponent -->
<g id="node35" class="node">
<title>RightPanelProfileComponent</title>
<polygon fill="#ffffb3" stroke="black" points="1736.65,-84.8 1555.35,-84.8 1555.35,-48.8 1736.65,-48.8 1736.65,-84.8"/>
<text text-anchor="middle" x="1646" y="-62.6" font-family="Times,serif" font-size="14.00">RightPanelProfileComponent</text>
</g>
<!-- RightPanelProfileComponent&#45;&gt;AppModule -->
<g id="edge35" class="edge">
<title>RightPanelProfileComponent&#45;&gt;AppModule</title>
<path fill="none" stroke="black" d="M1646,-85.11C1646,-104.95 1646,-133.8 1646,-133.8 1646,-133.8 3673.98,-133.8 3673.98,-133.8"/>
<polygon fill="black" stroke="black" points="3673.98,-137.3 3683.98,-133.8 3673.98,-130.3 3673.98,-137.3"/>
</g>
<!-- RightSpacerComponent -->
<g id="node36" class="node">
<title>RightSpacerComponent</title>
<polygon fill="#ffffb3" stroke="black" points="1537.04,-84.8 1386.96,-84.8 1386.96,-48.8 1537.04,-48.8 1537.04,-84.8"/>
<text text-anchor="middle" x="1462" y="-62.6" font-family="Times,serif" font-size="14.00">RightSpacerComponent</text>
</g>
<!-- RightSpacerComponent&#45;&gt;AppModule -->
<g id="edge36" class="edge">
<title>RightSpacerComponent&#45;&gt;AppModule</title>
<path fill="none" stroke="black" d="M1462,-84.93C1462,-105.37 1462,-135.8 1462,-135.8 1462,-135.8 3674.28,-135.8 3674.28,-135.8"/>
<polygon fill="black" stroke="black" points="3674.28,-139.3 3684.28,-135.8 3674.28,-132.3 3674.28,-139.3"/>
</g>
<!-- SearchFilterSortComponent -->
<g id="node37" class="node">
<title>SearchFilterSortComponent</title>
<polygon fill="#ffffb3" stroke="black" points="1368.58,-84.8 1195.42,-84.8 1195.42,-48.8 1368.58,-48.8 1368.58,-84.8"/>
<text text-anchor="middle" x="1282" y="-62.6" font-family="Times,serif" font-size="14.00">SearchFilterSortComponent</text>
</g>
<!-- SearchFilterSortComponent&#45;&gt;AppModule -->
<g id="edge37" class="edge">
<title>SearchFilterSortComponent&#45;&gt;AppModule</title>
<path fill="none" stroke="black" d="M1282,-84.83C1282,-105.57 1282,-136.8 1282,-136.8 1282,-136.8 3674.09,-136.8 3674.09,-136.8"/>
<polygon fill="black" stroke="black" points="3674.09,-140.3 3684.09,-136.8 3674.09,-133.3 3674.09,-140.3"/>
</g>
<!-- SnackbarComponent -->
<g id="node38" class="node">
<title>SnackbarComponent</title>
<polygon fill="#ffffb3" stroke="black" points="1177.92,-84.8 1044.08,-84.8 1044.08,-48.8 1177.92,-48.8 1177.92,-84.8"/>
<text text-anchor="middle" x="1111" y="-62.6" font-family="Times,serif" font-size="14.00">SnackbarComponent</text>
</g>
<!-- SnackbarComponent&#45;&gt;AppModule -->
<g id="edge38" class="edge">
<title>SnackbarComponent&#45;&gt;AppModule</title>
<path fill="none" stroke="black" d="M1111,-84.97C1111,-106.3 1111,-138.8 1111,-138.8 1111,-138.8 3674.13,-138.8 3674.13,-138.8"/>
<polygon fill="black" stroke="black" points="3674.13,-142.3 3684.13,-138.8 3674.13,-135.3 3674.13,-142.3"/>
</g>
<!-- StarRatingComponent -->
<g id="node39" class="node">
<title>StarRatingComponent</title>
<polygon fill="#ffffb3" stroke="black" points="1026.71,-84.8 885.29,-84.8 885.29,-48.8 1026.71,-48.8 1026.71,-84.8"/>
<text text-anchor="middle" x="956" y="-62.6" font-family="Times,serif" font-size="14.00">StarRatingComponent</text>
</g>
<!-- StarRatingComponent&#45;&gt;AppModule -->
<g id="edge39" class="edge">
<title>StarRatingComponent&#45;&gt;AppModule</title>
<path fill="none" stroke="black" d="M956,-85.09C956,-107.01 956,-140.8 956,-140.8 956,-140.8 3674.15,-140.8 3674.15,-140.8"/>
<polygon fill="black" stroke="black" points="3674.15,-144.3 3684.15,-140.8 3674.15,-137.3 3674.15,-144.3"/>
</g>
<!-- ThreadOverviewComponent -->
<g id="node40" class="node">
<title>ThreadOverviewComponent</title>
<polygon fill="#ffffb3" stroke="black" points="867.17,-84.8 690.83,-84.8 690.83,-48.8 867.17,-48.8 867.17,-84.8"/>
<text text-anchor="middle" x="779" y="-62.6" font-family="Times,serif" font-size="14.00">ThreadOverviewComponent</text>
</g>
<!-- ThreadOverviewComponent&#45;&gt;AppModule -->
<g id="edge40" class="edge">
<title>ThreadOverviewComponent&#45;&gt;AppModule</title>
<path fill="none" stroke="black" d="M779,-84.96C779,-107.15 779,-141.8 779,-141.8 779,-141.8 3674.34,-141.8 3674.34,-141.8"/>
<polygon fill="black" stroke="black" points="3674.34,-145.3 3684.34,-141.8 3674.34,-138.3 3674.34,-145.3"/>
</g>
<!-- UnauthorizedComponent -->
<g id="node41" class="node">
<title>UnauthorizedComponent</title>
<polygon fill="#ffffb3" stroke="black" points="672.53,-84.8 515.47,-84.8 515.47,-48.8 672.53,-48.8 672.53,-84.8"/>
<text text-anchor="middle" x="594" y="-62.6" font-family="Times,serif" font-size="14.00">UnauthorizedComponent</text>
</g>
<!-- UnauthorizedComponent&#45;&gt;AppModule -->
<g id="edge41" class="edge">
<title>UnauthorizedComponent&#45;&gt;AppModule</title>
<path fill="none" stroke="black" d="M594,-85.05C594,-107.82 594,-143.8 594,-143.8 594,-143.8 3674.09,-143.8 3674.09,-143.8"/>
<polygon fill="black" stroke="black" points="3674.09,-147.3 3684.09,-143.8 3674.09,-140.3 3674.09,-147.3"/>
</g>
<!-- UserRatingsComponent -->
<g id="node42" class="node">
<title>UserRatingsComponent</title>
<polygon fill="#ffffb3" stroke="black" points="497.04,-84.8 346.96,-84.8 346.96,-48.8 497.04,-48.8 497.04,-84.8"/>
<text text-anchor="middle" x="422" y="-62.6" font-family="Times,serif" font-size="14.00">UserRatingsComponent</text>
</g>
<!-- UserRatingsComponent&#45;&gt;AppModule -->
<g id="edge42" class="edge">
<title>UserRatingsComponent&#45;&gt;AppModule</title>
<path fill="none" stroke="black" d="M422,-85.12C422,-108.46 422,-145.8 422,-145.8 422,-145.8 3674.23,-145.8 3674.23,-145.8"/>
<polygon fill="black" stroke="black" points="3674.23,-149.3 3684.23,-145.8 3674.23,-142.3 3674.23,-149.3"/>
</g>
<!-- AppComponent  -->
<g id="node46" class="node">
<title>AppComponent </title>
<polygon fill="#80b1d3" stroke="black" points="3780.44,-214.8 3671.56,-214.8 3671.56,-178.8 3780.44,-178.8 3780.44,-214.8"/>
<text text-anchor="middle" x="3726" y="-192.6" font-family="Times,serif" font-size="14.00">AppComponent </text>
</g>
<!-- AppModule&#45;&gt;AppComponent  -->
<g id="edge45" class="edge">
<title>AppModule&#45;&gt;AppComponent </title>
<path fill="none" stroke="black" stroke-dasharray="1,5" d="M3726,-149.91C3726,-149.91 3726,-168.79 3726,-168.79"/>
<polygon fill="black" stroke="black" points="3722.5,-168.79 3726,-178.79 3729.5,-168.79 3722.5,-168.79"/>
</g>
<!-- AngularMaterialModule -->
<g id="node44" class="node">
<title>AngularMaterialModule</title>
<polygon fill="#8dd3c7" stroke="black" points="323.34,-84.8 320.34,-88.8 299.34,-88.8 296.34,-84.8 170.66,-84.8 170.66,-48.8 323.34,-48.8 323.34,-84.8"/>
<text text-anchor="middle" x="247" y="-62.6" font-family="Times,serif" font-size="14.00">AngularMaterialModule</text>
</g>
<!-- AngularMaterialModule&#45;&gt;AppModule -->
<g id="edge43" class="edge">
<title>AngularMaterialModule&#45;&gt;AppModule</title>
<path fill="none" stroke="black" d="M247,-84.95C247,-108.56 247,-146.8 247,-146.8 247,-146.8 3674.2,-146.8 3674.2,-146.8"/>
<polygon fill="black" stroke="black" points="3674.2,-150.3 3684.2,-146.8 3674.2,-143.3 3674.2,-150.3"/>
</g>
<!-- AppRoutingModule -->
<g id="node45" class="node">
<title>AppRoutingModule</title>
<polygon fill="#8dd3c7" stroke="black" points="152.27,-84.8 149.27,-88.8 128.27,-88.8 125.27,-84.8 23.73,-84.8 23.73,-48.8 152.27,-48.8 152.27,-84.8"/>
<text text-anchor="middle" x="88" y="-62.6" font-family="Times,serif" font-size="14.00">AppRoutingModule</text>
</g>
<!-- AppRoutingModule&#45;&gt;AppModule -->
<g id="edge44" class="edge">
<title>AppRoutingModule&#45;&gt;AppModule</title>
<path fill="none" stroke="black" d="M88,-85C88,-109.16 88,-148.8 88,-148.8 88,-148.8 3674.2,-148.8 3674.2,-148.8"/>
<polygon fill="black" stroke="black" points="3674.2,-152.3 3684.2,-148.8 3674.2,-145.3 3674.2,-152.3"/>
</g>
</g>
</svg>
